<svg width="80" height="50" viewBox="0 0 81 52" fill="none" xmlns="http://www.w3.org/2000/svg">
<path d="M29.5 1C29.5 0.447715 29.0523 2.41411e-08 28.5 0C27.9477 -2.41411e-08 27.5 0.447715 27.5 1L28.5 1L29.5 1ZM27.7929 51.7071C28.1834 52.0976 28.8166 52.0976 29.2071 51.7071L35.5711 45.3432C35.9616 44.9526 35.9616 44.3195 35.5711 43.9289C35.1805 43.5384 34.5474 43.5384 34.1569 43.9289L28.5 49.5858L22.8431 43.9289C22.4526 43.5384 21.8195 43.5384 21.4289 43.9289C21.0384 44.3195 21.0384 44.9526 21.4289 45.3432L27.7929 51.7071ZM28.5 1L27.5 1L27.5 51L28.5 51L29.5 51L29.5 1L28.5 1Z" fill="black"/>
<path opacity="0.5" d="M53.2071 0.292893C52.8166 -0.0976311 52.1834 -0.0976311 51.7929 0.292893L45.4289 6.65685C45.0384 7.04738 45.0384 7.68054 45.4289 8.07107C45.8195 8.46159 46.4526 8.46159 46.8431 8.07107L52.5 2.41421L58.1569 8.07107C58.5474 8.46159 59.1805 8.46159 59.5711 8.07107C59.9616 7.68054 59.9616 7.04738 59.5711 6.65685L53.2071 0.292893ZM51.5 51C51.5 51.5523 51.9477 52 52.5 52C53.0523 52 53.5 51.5523 53.5 51L52.5 51L51.5 51ZM52.5 1L51.5 1L51.5 3L52.5 3L53.5 3L53.5 1L52.5 1ZM52.5 9L51.5 9L51.5 13L52.5 13L53.5 13L53.5 9L52.5 9ZM52.5 19L51.5 19L51.5 23L52.5 23L53.5 23L53.5 19L52.5 19ZM52.5 29L51.5 29L51.5 33L52.5 33L53.5 33L53.5 29L52.5 29ZM52.5 39L51.5 39L51.5 43L52.5 43L53.5 43L53.5 39L52.5 39ZM52.5 49L51.5 49L51.5 51L52.5 51L53.5 51L53.5 49L52.5 49Z" fill="black"/>
</svg>
