<svg width="300" height="392" viewBox="0 0 300 392" fill="none" xmlns="http://www.w3.org/2000/svg">
<g clip-path="url(#clip0_2028_233)">
<path d="M242 299.91V367.91C242 376.73 234.82 383.91 226 383.91H74C65.18 383.91 58 376.73 58 367.91V299.91H242ZM250 291.91H50V367.91C50 381.16 60.75 391.91 74 391.91H226C239.25 391.91 250 381.16 250 367.91V291.91Z" fill="#231F20"/>
<path d="M138 242.38H29C26.7909 242.38 25 244.171 25 246.38C25 248.589 26.7909 250.38 29 250.38H138C140.209 250.38 142 248.589 142 246.38C142 244.171 140.209 242.38 138 242.38Z" fill="#231F20"/>
<path d="M258 212.85H175C167.82 212.85 162 218.67 162 225.85V266.91C162 274.09 167.82 279.91 175 279.91H258C265.18 279.91 271 274.09 271 266.91V225.85C271 218.67 265.18 212.85 258 212.85Z" fill="#CCCCCB"/>
<path d="M258 216.85C262.96 216.85 267 220.89 267 225.85V266.91C267 271.87 262.96 275.91 258 275.91H175C170.04 275.91 166 271.87 166 266.91V225.85C166 220.89 170.04 216.85 175 216.85H258ZM258 208.85H175C165.61 208.85 158 216.46 158 225.85V266.91C158 276.3 165.61 283.91 175 283.91H258C267.39 283.91 275 276.3 275 266.91V225.85C275 216.46 267.39 208.85 258 208.85Z" fill="#231F20"/>
<path d="M220.49 212.85C220.49 210.641 218.699 208.85 216.49 208.85C214.281 208.85 212.49 210.641 212.49 212.85V279.91C212.49 282.119 214.281 283.91 216.49 283.91C218.699 283.91 220.49 282.119 220.49 279.91V212.85Z" fill="#231F20"/>
<path d="M276 8C284.82 8 292 15.18 292 24V276C292 284.82 284.82 292 276 292H24C15.18 292 8 284.82 8 276V24C8 15.18 15.18 8 24 8H276ZM276 0H24C10.75 0 0 10.75 0 24V276C0 289.25 10.75 300 24 300H276C289.25 300 300 289.25 300 276V24C300 10.75 289.25 0 276 0Z" fill="#231F20"/>
<path d="M271 242.38H162C159.791 242.38 158 244.171 158 246.38C158 248.589 159.791 250.38 162 250.38H271C273.209 250.38 275 248.589 275 246.38C275 244.171 273.209 242.38 271 242.38Z" fill="#231F20"/>
<path d="M251 32.94C259.82 32.94 267 40.12 267 48.94V176.86C267 185.68 259.82 192.86 251 192.86H49C40.18 192.86 33 185.68 33 176.86V48.94C33 40.12 40.18 32.94 49 32.94H251ZM251 24.94H49C35.75 24.94 25 35.69 25 48.94V176.86C25 190.11 35.75 200.86 49 200.86H251C264.25 200.86 275 190.11 275 176.86V48.94C275 35.69 264.25 24.94 251 24.94Z" fill="#231F20"/>
</g>
<defs>
<clipPath id="clip0_2028_233">
<rect width="300" height="391.91" fill="white"/>
</clipPath>
</defs>
</svg>
