<svg width="400" height="400" viewBox="0 0 400 400" fill="none" xmlns="http://www.w3.org/2000/svg">
<g clip-path="url(#clip0_2028_158)">
<path d="M276 4H24C12.9543 4 4 12.9543 4 24V376C4 387.046 12.9543 396 24 396H276C287.046 396 296 387.046 296 376V24C296 12.9543 287.046 4 276 4Z" fill="white"/>
<path d="M276 8C284.82 8 292 15.18 292 24V376C292 384.82 284.82 392 276 392H24C15.18 392 8 384.82 8 376V24C8 15.18 15.18 8 24 8H276ZM276 0H24C10.75 0 0 10.75 0 24V376C0 389.25 10.75 400 24 400H276C289.25 400 300 389.25 300 376V24C300 10.75 289.25 0 276 0Z" fill="#231F20"/>
<path d="M150 376C158.837 376 166 368.837 166 360C166 351.163 158.837 344 150 344C141.163 344 134 351.163 134 360C134 368.837 141.163 376 150 376Z" fill="#231F20"/>
<path d="M174.5 23.99H125.5C121.082 23.99 117.5 27.5717 117.5 31.99C117.5 36.4083 121.082 39.99 125.5 39.99H174.5C178.918 39.99 182.5 36.4083 182.5 31.99C182.5 27.5717 178.918 23.99 174.5 23.99Z" fill="#231F20"/>
<path d="M91.7 122.5H123.3C131.69 122.5 138.5 129.31 138.5 137.7V169.3C138.5 177.69 131.69 184.5 123.3 184.5H91.7C83.31 184.5 76.5 177.69 76.5 169.3V137.7C76.5 129.31 83.31 122.5 91.7 122.5Z" fill="#CCCCCB"/>
<path d="M123.3 126.5C129.48 126.5 134.5 131.52 134.5 137.7V169.3C134.5 175.48 129.48 180.5 123.3 180.5H91.7C85.52 180.5 80.5 175.48 80.5 169.3V137.7C80.5 131.52 85.52 126.5 91.7 126.5H123.3ZM123.3 118.5H91.7C81.1 118.5 72.5 127.1 72.5 137.7V169.3C72.5 179.9 81.1 188.5 91.7 188.5H123.3C133.9 188.5 142.5 179.9 142.5 169.3V137.7C142.5 127.1 133.9 118.5 123.3 118.5Z" fill="#231F20"/>
<path d="M176.7 122.5H208.3C216.69 122.5 223.5 129.31 223.5 137.7V169.3C223.5 177.69 216.69 184.5 208.3 184.5H176.7C168.31 184.5 161.5 177.69 161.5 169.3V137.7C161.5 129.31 168.31 122.5 176.7 122.5Z" fill="#CCCCCB"/>
<path d="M208.3 126.5C214.48 126.5 219.5 131.52 219.5 137.7V169.3C219.5 175.48 214.48 180.5 208.3 180.5H176.7C170.52 180.5 165.5 175.48 165.5 169.3V137.7C165.5 131.52 170.52 126.5 176.7 126.5H208.3ZM208.3 118.5H176.7C166.1 118.5 157.5 127.1 157.5 137.7V169.3C157.5 179.9 166.1 188.5 176.7 188.5H208.3C218.9 188.5 227.5 179.9 227.5 169.3V137.7C227.5 127.1 218.9 118.5 208.3 118.5Z" fill="#231F20"/>
<path d="M91.7 207.5H123.3C131.69 207.5 138.5 214.31 138.5 222.7V254.3C138.5 262.69 131.69 269.5 123.3 269.5H91.7C83.31 269.5 76.5 262.69 76.5 254.3V222.7C76.5 214.31 83.31 207.5 91.7 207.5Z" fill="#CCCCCB"/>
<path d="M123.3 211.5C129.48 211.5 134.5 216.52 134.5 222.7V254.3C134.5 260.48 129.48 265.5 123.3 265.5H91.7C85.52 265.5 80.5 260.48 80.5 254.3V222.7C80.5 216.52 85.52 211.5 91.7 211.5H123.3ZM123.3 203.5H91.7C81.1 203.5 72.5 212.1 72.5 222.7V254.3C72.5 264.9 81.1 273.5 91.7 273.5H123.3C133.9 273.5 142.5 264.9 142.5 254.3V222.7C142.5 212.1 133.9 203.5 123.3 203.5Z" fill="#231F20"/>
<path d="M176.7 207.5H208.3C216.69 207.5 223.5 214.31 223.5 222.7V254.3C223.5 262.69 216.69 269.5 208.3 269.5H176.7C168.31 269.5 161.5 262.69 161.5 254.3V222.7C161.5 214.31 168.31 207.5 176.7 207.5Z" fill="#CCCCCB"/>
<path d="M208.3 211.5C214.48 211.5 219.5 216.52 219.5 222.7V254.3C219.5 260.48 214.48 265.5 208.3 265.5H176.7C170.52 265.5 165.5 260.48 165.5 254.3V222.7C165.5 216.52 170.52 211.5 176.7 211.5H208.3ZM208.3 203.5H176.7C166.1 203.5 157.5 212.1 157.5 222.7V254.3C157.5 264.9 166.1 273.5 176.7 273.5H208.3C218.9 273.5 227.5 264.9 227.5 254.3V222.7C227.5 212.1 218.9 203.5 208.3 203.5Z" fill="#231F20"/>
<path d="M376 104H274C262.954 104 254 112.954 254 124V376C254 387.046 262.954 396 274 396H376C387.046 396 396 387.046 396 376V124C396 112.954 387.046 104 376 104Z" fill="white"/>
<path d="M376 108C384.82 108 392 115.18 392 124V376C392 384.82 384.82 392 376 392H274C265.18 392 258 384.82 258 376V124C258 115.18 265.18 108 274 108H376ZM376 100H274C260.75 100 250 110.75 250 124V376C250 389.25 260.75 400 274 400H376C389.25 400 400 389.25 400 376V124C400 110.75 389.25 100 376 100Z" fill="#231F20"/>
<path d="M325 374.24C333.837 374.24 341 367.077 341 358.24C341 349.403 333.837 342.24 325 342.24C316.163 342.24 309 349.403 309 358.24C309 367.077 316.163 374.24 325 374.24Z" fill="#231F20"/>
<path d="M349.5 123.99H300.5C296.082 123.99 292.5 127.572 292.5 131.99C292.5 136.408 296.082 139.99 300.5 139.99H349.5C353.918 139.99 357.5 136.408 357.5 131.99C357.5 127.572 353.918 123.99 349.5 123.99Z" fill="#231F20"/>
<path d="M301.8 191.11H290.2C281.805 191.11 275 197.915 275 206.31V217.91C275 226.305 281.805 233.11 290.2 233.11H301.8C310.195 233.11 317 226.305 317 217.91V206.31C317 197.915 310.195 191.11 301.8 191.11Z" fill="#CCCCCB"/>
<path d="M301.8 195.11C307.98 195.11 313 200.13 313 206.31V217.91C313 224.09 307.98 229.11 301.8 229.11H290.2C284.02 229.11 279 224.09 279 217.91V206.31C279 200.13 284.02 195.11 290.2 195.11H301.8ZM301.8 187.11H290.2C279.6 187.11 271 195.71 271 206.31V217.91C271 228.51 279.6 237.11 290.2 237.11H301.8C312.4 237.11 321 228.51 321 217.91V206.31C321 195.71 312.4 187.11 301.8 187.11Z" fill="#231F20"/>
<path d="M359.8 191.11H348.2C339.805 191.11 333 197.915 333 206.31V217.91C333 226.305 339.805 233.11 348.2 233.11H359.8C368.195 233.11 375 226.305 375 217.91V206.31C375 197.915 368.195 191.11 359.8 191.11Z" fill="#CCCCCB"/>
<path d="M359.8 195.11C365.98 195.11 371 200.13 371 206.31V217.91C371 224.09 365.98 229.11 359.8 229.11H348.2C342.02 229.11 337 224.09 337 217.91V206.31C337 200.13 342.02 195.11 348.2 195.11H359.8ZM359.8 187.11H348.2C337.6 187.11 329 195.71 329 206.31V217.91C329 228.51 337.6 237.11 348.2 237.11H359.8C370.4 237.11 379 228.51 379 217.91V206.31C379 195.71 370.4 187.11 359.8 187.11Z" fill="#231F20"/>
<path d="M301.8 249.11H290.2C281.805 249.11 275 255.915 275 264.31V275.91C275 284.305 281.805 291.11 290.2 291.11H301.8C310.195 291.11 317 284.305 317 275.91V264.31C317 255.915 310.195 249.11 301.8 249.11Z" fill="#CCCCCB"/>
<path d="M301.8 253.11C307.98 253.11 313 258.13 313 264.31V275.91C313 282.09 307.98 287.11 301.8 287.11H290.2C284.02 287.11 279 282.09 279 275.91V264.31C279 258.13 284.02 253.11 290.2 253.11H301.8ZM301.8 245.11H290.2C279.6 245.11 271 253.71 271 264.31V275.91C271 286.51 279.6 295.11 290.2 295.11H301.8C312.4 295.11 321 286.51 321 275.91V264.31C321 253.71 312.4 245.11 301.8 245.11Z" fill="#231F20"/>
<path d="M359.8 249.11H348.2C339.805 249.11 333 255.915 333 264.31V275.91C333 284.305 339.805 291.11 348.2 291.11H359.8C368.195 291.11 375 284.305 375 275.91V264.31C375 255.915 368.195 249.11 359.8 249.11Z" fill="#CCCCCB"/>
<path d="M359.8 253.11C365.98 253.11 371 258.13 371 264.31V275.91C371 282.09 365.98 287.11 359.8 287.11H348.2C342.02 287.11 337 282.09 337 275.91V264.31C337 258.13 342.02 253.11 348.2 253.11H359.8ZM359.8 245.11H348.2C337.6 245.11 329 253.71 329 264.31V275.91C329 286.51 337.6 295.11 348.2 295.11H359.8C370.4 295.11 379 286.51 379 275.91V264.31C379 253.71 370.4 245.11 359.8 245.11Z" fill="#231F20"/>
</g>
<defs>
<clipPath id="clip0_2028_158">
<rect width="400" height="400" fill="white"/>
</clipPath>
</defs>
</svg>
