<svg width="400" height="300" viewBox="0 0 400 300" fill="none" xmlns="http://www.w3.org/2000/svg">
<g clip-path="url(#clip0_2028_23)">
<path d="M376 8C384.82 8 392 15.18 392 24V276C392 284.82 384.82 292 376 292H24C15.18 292 8 284.82 8 276V24C8 15.18 15.18 8 24 8H376ZM376 0H24C10.75 0 0 10.75 0 24V276C0 289.25 10.75 300 24 300H376C389.25 300 400 289.25 400 276V24C400 10.75 389.25 0 376 0Z" fill="#231F20"/>
<path d="M4 46V24C4 12.98 12.97 4 24 4H376C387.03 4 396 12.97 396 24V46H4Z" fill="#CCCCCB"/>
<path d="M376 8.01C384.82 8.01 392 15.19 392 24.01V42.01H8V24.01C8 15.19 15.18 8.01 24 8.01H376ZM376 0H24C10.75 0 0 10.75 0 24.01V50.01H400V24.01C400 10.75 389.25 0 376 0Z" fill="#231F20"/>
<path d="M74 33.01C78.4183 33.01 82 29.4283 82 25.01C82 20.5917 78.4183 17.01 74 17.01C69.5817 17.01 66 20.5917 66 25.01C66 29.4283 69.5817 33.01 74 33.01Z" fill="#231F20"/>
<path d="M49.5 33.01C53.9183 33.01 57.5 29.4283 57.5 25.01C57.5 20.5917 53.9183 17.01 49.5 17.01C45.0817 17.01 41.5 20.5917 41.5 25.01C41.5 29.4283 45.0817 33.01 49.5 33.01Z" fill="#231F20"/>
<path d="M25 33.01C29.4183 33.01 33 29.4283 33 25.01C33 20.5917 29.4183 17.01 25 17.01C20.5817 17.01 17 20.5917 17 25.01C17 29.4283 20.5817 33.01 25 33.01Z" fill="#231F20"/>
<path d="M374.69 17.01H270.69C266.272 17.01 262.69 20.5917 262.69 25.01C262.69 29.4283 266.272 33.01 270.69 33.01H374.69C379.108 33.01 382.69 29.4283 382.69 25.01C382.69 20.5917 379.108 17.01 374.69 17.01Z" fill="#231F20"/>
<path d="M199.74 250C241.161 250 274.74 216.421 274.74 175C274.74 133.579 241.161 100 199.74 100C158.319 100 124.74 133.579 124.74 175C124.74 216.421 158.319 250 199.74 250Z" stroke="#231F20" stroke-width="8" stroke-miterlimit="10" stroke-linecap="round"/>
<path d="M199.74 250C220.451 250 237.24 216.421 237.24 175C237.24 133.579 220.451 100 199.74 100C179.029 100 162.24 133.579 162.24 175C162.24 216.421 179.029 250 199.74 250Z" stroke="#231F20" stroke-width="8" stroke-miterlimit="10" stroke-linecap="round"/>
<path d="M199.74 100V250" stroke="#231F20" stroke-width="8" stroke-miterlimit="10"/>
<path d="M258.31 221.85C239.88 215.79 220.2 212.51 199.74 212.51C179.28 212.51 159.6 215.8 141.17 221.85" stroke="#231F20" stroke-width="8" stroke-miterlimit="10"/>
<path d="M274.74 175H124.74" stroke="#231F20" stroke-width="8" stroke-miterlimit="10"/>
<path d="M141.17 128.16C159.6 134.22 179.28 137.5 199.74 137.5C220.2 137.5 239.88 134.21 258.31 128.16" stroke="#231F20" stroke-width="8" stroke-miterlimit="10"/>
</g>
<defs>
<clipPath id="clip0_2028_23">
<rect width="400" height="300" fill="white"/>
</clipPath>
</defs>
</svg>
